<svg id="Capa_1" enable-background="new 0 0 511.999 511.999" height="512" viewBox="0 0 511.999 511.999" width="512" xmlns="http://www.w3.org/2000/svg"><g><g><g clip-rule="evenodd" fill-rule="evenodd"><path d="m7.5 149.479 82.833-82.833 82.833 82.833v-42.426l-82.833-82.833-82.833 82.833z" fill="#decba0"/><path d="m7.499 280.887h165.667v-131.408l-82.833-82.833-82.833 82.833zm30 179.999h30.333v-75h45v75h30.334v30h30v-179.999h-165.667l.001 179.999h30v-30zm30.334-304.446h45v90h-45z" fill="#e08ea2"/><path d="m7.499 310.887h497v-30c-165.667 0-331.333 0-497 0v30z" fill="#decba0"/><path d="m112.833 490.886h30.334v-30h-30.334zm331.333 0h30.333v-30h-30.333zm-75.334 0h30.333v-30h-30.333zm-90.333 0h30.333v-30h-30.333zm-75.333 0h30.334v-30h-30.334zm-165.667 0h30.333v-30h-30.333z" fill="#e5ecf5"/><path d="m67.833 490.886h45v-105h-45zm331.333 0h45v-105h-45zm-165.667 0h45v-105h-45z" fill="#decba0"/><path d="m67.833 156.44h45v90h-45z" fill="#c4e5f9"/><path d="m7.5 149.479 82.833-82.833 82.833 82.833v-22.5l-82.833-82.833-82.833 82.833z" fill="#d4b981"/><path d="m67.833 156.44h15v90h-15z" fill="#83c8f1"/><path d="m67.833 490.886h15v-105h-15zm331.333 0h15v-105h-15zm-165.667 0h15v-105h-15z" fill="#d4b981"/><path d="m112.833 490.886h15v-30h-15zm331.333 0h15v-30h-15zm-75.334 0h15v-30h-15zm-90.333 0h15v-30h-15zm-75.333 0h15v-30h-15zm-165.667 0h15v-30h-15z" fill="#cad8eb"/><path d="m7.499 280.887h22.5l.001-153.908-22.5 22.5zm22.5 30h-22.5l.001 179.999h22.5z" fill="#d15573"/><path d="m7.499 310.887h22.5v-30h-22.5zm331.333 0h22.5v-30h-22.5zm-165.666 0h22.5v-30h-22.5z" fill="#d4b981"/><path d="m173.166 149.479 82.833-82.833 82.833 82.833v-42.426l-82.833-82.833-82.833 82.833z" fill="#decba0"/><path d="m173.166 280.887h165.667v-131.408l-82.833-82.833-82.833 82.833zm30 179.999h30.334v-75h45v75h30.333v30h30v-179.999h-165.667l.001 179.999h30v-30zm30.333-304.446h45v90h-45z" fill="#faef93"/><path d="m233.499 156.44h45v90h-45z" fill="#c4e5f9"/><path d="m173.166 149.479 82.833-82.833 82.833 82.833v-22.5l-82.833-82.833-82.833 82.833z" fill="#d4b981"/><path d="m233.499 156.44h15v90h-15z" fill="#83c8f1"/><path d="m173.166 280.887h22.5v-153.907l-22.5 22.5zm22.499 30h-22.5l.001 179.999h22.5z" fill="#f8e868"/><path d="m338.832 149.479 82.834-82.833 82.833 82.833v-42.426l-82.833-82.833-82.834 82.833z" fill="#decba0"/><path d="m338.832 280.887h165.667v-131.408l-82.833-82.833-82.833 82.833zm30 179.999h30.333v-75h45v75h30.333v30h30v-179.999h-165.666l.001 179.999h30v-30zm30.334-304.446h45v90h-45z" fill="#7bdaa9"/><path d="m399.166 156.44h45v90h-45z" fill="#c4e5f9"/><path d="m338.832 149.479 82.834-82.833 82.833 82.833v-22.5l-82.833-82.833-82.834 82.833z" fill="#d4b981"/><path d="m399.166 156.44h15v90h-15z" fill="#83c8f1"/><path d="m338.832 280.887h22.5l.001-153.907-22.5 22.5zm22.5 30h-22.5l.001 179.999h22.5z" fill="#52cd8d"/></g><g><path d="m481.999 348.387h-15v-15h15zm-165.666 0h-15v-15h15zm-165.666 0h-15v-15h15zm330.998-146.948h-15v-15h15zm-165.666 0h-15v-15h15zm-165.666 0h-15v-15h15zm331.332-30h-15v-15h15zm-165.666 0h-15v-15h15zm-165.666 0h-15v-15h15z" fill="#fff"/></g></g><g><path d="m511.999 393.387v-289.44l-90.333-90.333-82.834 82.833-30.81-30.81-10.607 10.605 33.917 33.917v21.214l-75.333-75.333-75.333 75.333v-21.214l75.333-75.333 30.811 30.811 10.605-10.607-41.416-41.416-82.833 82.833-82.833-82.834-90.333 90.333v96.237h15v-47.597l75.333-75.334 30.81 30.81 10.606-10.606-41.416-41.416-75.333 75.334v-21.215l75.333-75.333 75.333 75.332v21.215l-23.311-23.311-10.606 10.606 33.917 33.917v120.801h-150.666v-58.203h-15v283.202h511.999v-90h-15v75h-15v-30h-30.333v-75h-60v75h-30.334v30h-15v-164.998h67.833v-15h-67.833v-15h150.667v15h-67.834v15h67.834v75zm-391.666 74.999h15.334v15h-15.334zm-15 15h-30v-90h30zm-45 0h-15.334v-15h15.334zm225.666-15h15.334v15h-15.334zm-15 15h-30v-90h30zm-45 0h-15.333v-15h15.333zm241-15v15h-15.333v-15zm-30.333-75v90h-30v-90zm-60.334 75h15.334v15h-15.334zm-45 15h-14.999v-30h-30.334v-75h-60v75h-30.333v30h-15v-75h-15v75h-14.999v-30h-30.334v-75h-60v75h-30.334v30h-14.999v-164.999h67.833v-15h-67.833v-15h150.666v15h-67.833v15h67.833v75h15v-75h150.666zm15-209.999v-58.203h-15v58.203h-67.833v15h67.833v15h-150.666v-15h67.833v-15h-67.833v-120.8l75.333-75.334 75.333 75.334v47.597h15v-47.598l75.334-75.333 30.81 30.81 10.607-10.606-41.417-41.417-75.334 75.333v-21.215l75.334-75.332 75.333 75.333v21.214l-23.31-23.311-10.607 10.606 33.917 33.917v120.801h-150.667z"/><path d="m285.999 148.939h-60v90h-15v15h90v-15h-15zm-15 90h-30v-30h30zm0-45h-30v-30h30z"/><path d="m60.333 148.939v90h-15v15h90v-15h-15v-90zm45 90h-30v-30h30zm0-45h-30v-30h30z"/><path d="m451.666 238.939v-90h-60v90h-15v15h90v-15zm-15 0h-30v-30h30zm0-45h-30v-30h30z"/><path d="m60.333 348.386h22.5v15h-22.5z"/><path d="m429.166 348.386h22.5v15h-22.5z"/><path d="m391.666 348.386h22.5v15h-22.5z"/><path d="m225.999 348.386h22.5v15h-22.5z"/><path d="m97.833 348.386h22.5v15h-22.5z"/><path d="m263.5 348.386h22.5v15h-22.5z"/></g></g></svg>