<svg id="Capa_1" enable-background="new 0 0 512.002 512.002" viewBox="0 0 512.002 512.002" xmlns="http://www.w3.org/2000/svg"><g><g><path d="m456.254 239.574c1.557-9.905-14.426-21.369-14.426-31.711s15.983-21.807 14.426-31.712c-1.598-10.169-20.363-16.156-23.474-25.737-3.166-9.748 8.475-25.608 3.878-34.612-4.646-9.098-24.339-8.971-30.307-17.17-5.996-8.238.179-26.93-7.01-34.118-7.188-7.187-25.879-1.012-34.117-7.007-8.199-5.967-8.072-25.66-17.171-30.305-9.004-4.597-24.863 7.045-34.611 3.88-9.579-3.11-15.565-21.874-25.731-23.472-9.905-1.557-21.369 14.426-31.711 14.426s-21.807-15.982-31.712-14.426c-10.169 1.598-16.156 20.363-25.737 23.474-9.748 3.165-25.608-8.476-34.612-3.879-9.098 4.646-8.971 24.339-17.17 30.307-8.238 5.996-26.93-.179-34.118 7.01-7.187 7.188-1.012 25.88-7.007 34.117-5.967 8.199-25.66 8.072-30.305 17.171-4.597 9.004 7.045 24.863 3.88 34.611-3.11 9.579-21.875 15.565-23.472 25.732-1.557 9.905 14.426 21.369 14.426 31.711s-15.983 21.807-14.426 31.712c1.598 10.169 20.363 16.156 23.474 25.737 3.166 9.748-8.475 25.608-3.878 34.612 4.646 9.098 24.339 8.971 30.307 17.17 5.996 8.238-.179 26.93 7.01 34.118 7.188 7.187 25.879 1.012 34.117 7.007 8.199 5.967 8.072 25.66 17.171 30.305 9.004 4.596 24.863-7.046 34.611-3.88 2.857.927 5.393 3.247 7.817 6.089l98.617.762c2.617-3.185 5.348-5.843 8.457-6.852 9.748-3.166 25.608 8.475 34.612 3.878 9.098-4.646 8.971-24.339 17.17-30.307 8.238-5.996 26.93.179 34.118-7.01 7.187-7.188 1.012-25.879 7.007-34.117 5.967-8.199 25.66-8.072 30.305-17.171 4.597-9.004-7.045-24.863-3.88-34.611 3.11-9.58 21.875-15.566 23.472-25.732z" fill="#a46a5a"/><path d="m456.254 239.574c1.557-9.905-14.426-21.369-14.426-31.711s15.983-21.807 14.426-31.712c-1.598-10.169-20.363-16.156-23.474-25.737-3.166-9.748 8.475-25.608 3.878-34.612-4.646-9.098-24.339-8.971-30.307-17.17-5.996-8.238.179-26.93-7.01-34.118-6.742-6.741-23.496-1.85-32.361-6.149-9.841 11.022-19.045 25.938-22.821 45.418-6.288 32.44-27.765 29.056-66.058 25.114l-12.34 261.836 39.231.762c2.617-3.185 5.348-5.843 8.457-6.852 9.748-3.166 25.608 8.475 34.612 3.878 9.098-4.646 8.971-24.339 17.17-30.307 8.238-5.996 26.93.179 34.118-7.01 7.187-7.188 1.012-25.879 7.007-34.117 5.967-8.199 25.66-8.072 30.305-17.171 4.597-9.004-7.045-24.863-3.88-34.611 3.111-9.579 21.876-15.565 23.473-25.731z" fill="#845252"/><path d="m256.001 480.459c42.539 0 80.13-20.801 103.457-52.694l-33.983-11.994c-12.817-4.524-21.388-16.638-21.388-30.23v-55.161h-96.173v55.161c0 13.592-8.571 25.706-21.388 30.23l-33.983 11.994c23.328 31.893 60.919 52.694 103.458 52.694z" fill="#c6805d"/><path d="m304.087 385.541v-55.161h-96.173v44.202c16.436 6.745 33.822 10.076 51.314 9.658 13.995-.335 20.522 7.825 22.806 16.082 4.82 17.429 17.837 31.911 35.437 38.124l24.537 8.659c6.432-5.85 12.306-12.306 17.45-19.339l-33.983-11.994c-12.816-4.525-21.388-16.639-21.388-30.231z" fill="#a46a5a"/><path d="m371.067 223.998h-2.314c13.485-67.006-71.006-41.971-83.919-94.406-2.179-.224-4.418-.457-6.731-.696-29.592-3.046-52.221 6.527-74.414 31.261-20.826 23.21-37.691 23.431-54.223 24.542-11.866 17.143-7.46 33.498-5.235 39.299h-3.294c-10.48 0-20.031 7.541-21.075 17.969-1.201 11.993 8.185 22.103 19.932 22.103h12.427c4.105 53.784 48.947 96.173 103.782 96.173s99.677-42.389 103.782-96.173h12.427c11.747 0 21.133-10.11 19.932-22.103-1.046-10.428-10.597-17.969-21.077-17.969z" fill="#e29a6c"/><path d="m371.067 223.998h-2.315c8.481-42.142-21.789-47.882-48.636-59.38v91.438c0 50.72-36.259 92.929-84.26 102.234 6.517 1.278 13.251 1.953 20.145 1.953 54.835 0 99.677-42.389 103.782-96.173h12.427c11.748 0 21.133-10.11 19.932-22.103-1.044-10.428-10.595-17.969-21.075-17.969z" fill="#c6805d"/><path d="m208.636 272.085c3.822 22.734 23.544 40.072 47.365 40.072s43.542-17.338 47.365-40.072z" fill="#fff"/><path d="m408.25 444.986-64.609-22.803c-20.56 25.724-36.408 42.248-87.64 42.248-35.492 0-67.079-16.524-87.64-42.248l-64.609 22.803c-19.225 6.786-32.082 24.957-32.082 45.345v14.171h343.698l24.965-14.171c-.001-20.388-12.858-38.56-32.083-45.345z" fill="#ffaa5a"/><path d="m440.332 490.331c0-20.388-12.857-38.56-32.082-45.345l-64.609-22.803c-5.597 7.003-12.072 13.245-19.16 18.737l75.764 26.735c5.815 2.054 12.364 6.207 14.111 14.409.842 3.952.963 13.44 1.012 22.439h24.965v-14.172z" fill="#ff8b57"/><path d="m256.001 496.488c49.588 0 93.31-25.036 119.276-63.14l-31.636-11.166c-20.56 25.724-52.148 42.248-87.64 42.248s-67.08-16.524-87.64-42.248l-31.636 11.166c25.966 38.104 69.688 63.14 119.276 63.14z" fill="#ffc263"/><circle cx="135.785" cy="280.099" fill="#ffe077" r="16.029"/><circle cx="376.217" cy="280.099" fill="#ffe077" r="16.029"/><path d="m324.481 440.92 34.583 12.203c5.964-6.093 11.397-12.706 16.214-19.775l-31.636-11.166c-5.598 7.003-12.074 13.246-19.161 18.738z" fill="#ffaa5a"/></g><g><path d="m199.891 207.476c.316 0 .637-.02.959-.061l18.007-2.301c4.109-.524 7.014-4.281 6.489-8.39-.524-4.108-4.279-7.016-8.39-6.489l-18.007 2.301c-4.109.524-7.014 4.281-6.489 8.39.484 3.786 3.711 6.55 7.431 6.55z"/><path d="m293.145 205.114 18.006 2.301c.323.041.643.061.959.061 3.719 0 6.947-2.764 7.43-6.55.525-4.109-2.38-7.865-6.489-8.39l-18.006-2.301c-4.11-.524-7.865 2.381-8.39 6.489-.524 4.11 2.381 7.866 6.49 8.39z"/><path d="m455.303 218.919c-2.662-3.773-5.975-8.469-5.975-11.057s3.313-7.284 5.975-11.058c4.519-6.406 9.642-13.667 8.361-21.819-1.315-8.367-8.547-13.782-14.927-18.561-3.602-2.697-8.085-6.054-8.823-8.328-.779-2.399.9-7.842 2.25-12.216 2.325-7.535 4.96-16.076 1.175-23.49-3.822-7.486-12.338-10.378-19.853-12.929-4.292-1.458-9.633-3.271-11.07-5.245-1.458-2.003-1.542-7.67-1.609-12.224-.117-7.908-.249-16.871-6.162-22.784s-14.876-6.044-22.784-6.161c-4.553-.066-10.221-.15-12.223-1.607-1.974-1.436-3.788-6.777-5.245-11.069-2.551-7.514-5.443-16.029-12.929-19.852-7.414-3.784-15.954-1.149-23.49 1.177-4.373 1.35-9.816 3.029-12.215 2.25-2.273-.738-5.629-5.22-8.326-8.822-4.777-6.38-10.192-13.612-18.558-14.927-8.152-1.279-15.412 3.842-21.818 8.361-3.773 2.662-8.469 5.975-11.057 5.975s-7.284-3.312-11.058-5.975c-6.407-4.52-13.666-9.641-21.819-8.361-8.366 1.315-13.782 8.546-18.56 14.927-2.697 3.602-6.054 8.084-8.328 8.823-2.4.779-7.843-.901-12.216-2.25-7.535-2.325-16.076-4.961-23.491-1.175-2.057 1.051-3.923 2.558-5.548 4.48-2.673 3.164-2.275 7.896.889 10.569s7.896 2.275 10.569-.889c.327-.387.643-.665.911-.802 1.99-1.015 8.163.888 12.248 2.148 7.058 2.178 14.355 4.429 21.271 2.183 6.797-2.208 11.324-8.252 15.702-14.098 2.759-3.685 6.539-8.732 8.882-9.101 2.142-.334 7.38 3.356 10.844 5.8 5.792 4.086 12.358 8.718 19.704 8.718s13.911-4.632 19.704-8.718c3.464-2.444 8.705-6.14 10.843-5.8 2.342.368 6.12 5.414 8.879 9.099 4.377 5.846 8.903 11.892 15.7 14.098 6.915 2.246 14.213-.006 21.271-2.184 4.084-1.261 10.257-3.165 12.246-2.149 2.061 1.052 4.075 6.983 5.545 11.313 2.36 6.952 4.801 14.14 10.622 18.376 5.85 4.257 13.465 4.369 20.83 4.477 4.552.067 10.787.158 12.397 1.769 1.611 1.61 1.703 7.846 1.771 12.398.108 7.364.221 14.979 4.479 20.83 4.236 5.821 11.424 8.261 18.375 10.621 4.331 1.471 10.263 3.484 11.315 5.546 1.016 1.99-.889 8.163-2.149 12.248-2.177 7.057-4.429 14.355-2.183 21.271 2.208 6.797 8.252 11.324 14.099 15.702 3.685 2.76 8.732 6.539 9.1 8.882.337 2.145-3.356 7.38-5.8 10.844-4.086 5.792-8.717 12.358-8.717 19.705 0 7.346 4.631 13.911 8.718 19.703 2.443 3.464 6.136 8.699 5.799 10.844-.368 2.342-5.414 6.12-9.098 8.879-5.846 4.377-11.892 8.903-14.098 15.7-2.246 6.916.006 14.214 2.184 21.271 1.26 4.084 3.165 10.256 2.149 12.246-1.052 2.061-6.983 4.075-11.314 5.545-6.951 2.36-14.139 4.801-18.375 10.622-4.258 5.85-4.37 13.465-4.478 20.83-.066 4.552-.158 10.787-1.769 12.397-1.61 1.611-7.845 1.703-12.398 1.77-7.364.109-14.979.221-20.83 4.479-5.821 4.236-8.261 11.425-10.622 18.376-1.47 4.331-3.484 10.263-5.545 11.315-1.993 1.017-8.164-.888-12.248-2.148-6.904-2.13-14.036-4.319-20.817-2.312v-24.455c21.79-12.556 38.969-32.253 48.316-55.872 4.233 4.081 9.983 6.598 16.314 6.598 12.974 0 23.529-10.555 23.529-23.528 0-6.786-2.891-12.906-7.501-17.204 4.646-4.932 7.501-11.567 7.501-18.861 0-13.481-9.741-24.723-22.553-27.075 4.809-35.604-21.355-45.51-42.688-53.581-16.125-6.101-30.382-11.5-36.525-25.08 10.677.767 19.762.699 27.474-1.518 13.363-3.84 21.619-13.754 25.98-31.201 1.005-4.019-1.438-8.09-5.457-9.095-4.014-1.003-8.09 1.438-9.095 5.457-5.964 23.856-16.286 23.797-54.813 19.804l-3.201-.332c-31.978-3.292-56.89 7.105-80.764 33.713-17.979 20.037-31.526 20.918-47.211 21.938-13.672.889-29.167 1.896-45.843 17.219-3.05 2.803-3.25 7.547-.448 10.598 1.479 1.609 3.498 2.425 5.524 2.425 1.813 0 3.632-.653 5.073-1.978 7.875-7.237 15.102-10.285 22.489-11.755-3.901 8.896-4.078 17.297-3.278 23.456-12.616 2.51-22.156 13.663-22.156 27.005 0 7.294 2.856 13.929 7.501 18.861-4.611 4.298-7.501 10.418-7.501 17.204 0 12.974 10.555 23.528 23.529 23.528 6.33 0 12.08-2.517 16.313-6.598 9.347 23.619 26.526 43.317 48.316 55.873v24.455c-6.777-2.003-13.909.186-20.811 2.315-4.084 1.261-10.257 3.165-12.246 2.149-2.061-1.052-4.075-6.983-5.545-11.314-2.36-6.951-4.801-14.139-10.622-18.375-5.851-4.258-13.465-4.369-20.83-4.478-4.552-.066-10.787-.158-12.397-1.769-1.611-1.611-1.703-7.846-1.771-12.398-.108-7.364-.221-14.979-4.479-20.83-4.236-5.821-11.424-8.261-18.375-10.622-4.331-1.47-10.263-3.484-11.315-5.546-1.016-1.99.889-8.163 2.149-12.247 2.177-7.058 4.429-14.355 2.183-21.271-2.208-6.797-8.252-11.324-14.099-15.702-3.685-2.759-8.732-6.539-9.1-8.882-.337-2.145 3.356-7.38 5.8-10.844 4.086-5.793 8.717-12.358 8.717-19.704s-4.631-13.912-8.718-19.704c-2.443-3.464-6.136-8.698-5.799-10.843.368-2.342 5.414-6.12 9.098-8.879 5.846-4.378 11.892-8.904 14.098-15.701 2.246-6.916-.006-14.213-2.184-21.271-1.26-4.084-3.165-10.256-2.149-12.246 1.052-2.061 6.983-4.075 11.313-5.545 6.951-2.36 14.139-4.801 18.375-10.622 4.258-5.851 4.37-13.465 4.478-20.83.067-4.552.158-10.787 1.769-12.398 1.61-1.61 7.845-1.702 12.398-1.77 7.364-.109 14.979-.221 20.83-4.479 3.349-2.438 4.088-7.128 1.65-10.477-2.437-3.349-7.128-4.089-10.478-1.651-2.002 1.458-7.67 1.542-12.224 1.608-7.908.117-16.871.249-22.784 6.163-5.913 5.913-6.044 14.875-6.16 22.783-.067 4.554-.15 10.221-1.607 12.224-1.437 1.974-6.778 3.787-11.069 5.244-7.514 2.551-16.03 5.443-19.851 12.929-3.785 7.414-1.149 15.955 1.176 23.49 1.35 4.374 3.029 9.816 2.25 12.215-.738 2.272-5.22 5.629-8.822 8.326-6.38 4.777-13.611 10.192-14.926 18.557-1.281 8.151 3.841 15.413 8.361 21.819 2.662 3.773 5.975 8.469 5.975 11.057s-3.313 7.284-5.975 11.058c-4.519 6.406-9.642 13.667-8.361 21.819 1.315 8.367 8.547 13.782 14.927 18.56 3.602 2.697 8.085 6.055 8.823 8.329.779 2.399-.9 7.842-2.25 12.216-2.325 7.536-4.96 16.077-1.175 23.491 3.822 7.486 12.338 10.377 19.852 12.929 4.292 1.457 9.634 3.271 11.07 5.244 1.458 2.003 1.542 7.671 1.609 12.225.117 7.908.249 16.871 6.162 22.783 5.913 5.913 14.875 6.044 22.784 6.161 4.553.067 10.221.15 12.223 1.607 1.974 1.437 3.788 6.778 5.245 11.07 2.551 7.513 5.443 16.029 12.929 19.851 7.415 3.785 15.955 1.149 23.49-1.176 4.373-1.35 9.817-3.03 12.215-2.251.535.174 1.407.684 2.732 1.988-2.441 6.839-7.84 12.427-14.944 14.934l-82.774 29.215c-22.183 7.829-37.086 28.894-37.086 52.417v14.171c0 4.142 3.358 7.5 7.5 7.5s7.5-3.358 7.5-7.5v-14.171c0-17.176 10.882-32.556 27.079-38.273l27.675-9.767c28.593 38.654 73.876 61.59 122.078 61.59 48.203 0 93.485-22.937 122.078-61.591l27.675 9.768c16.196 5.717 27.079 21.097 27.079 38.273v14.171c0 4.142 3.358 7.5 7.5 7.5s7.5-3.358 7.5-7.5v-14.171c0-23.523-14.904-44.588-37.086-52.417l-82.774-29.215c-7.102-2.506-12.499-8.09-14.941-14.926 1.317-1.296 2.193-1.821 2.736-1.998 2.397-.78 7.842.9 12.216 2.25 7.535 2.325 16.077 4.96 23.491 1.175 7.486-3.822 10.377-12.339 12.928-19.852 1.458-4.292 3.271-9.634 5.245-11.071 2.002-1.458 7.67-1.541 12.224-1.608 7.908-.117 16.871-.249 22.784-6.162s6.044-14.876 6.16-22.784c.067-4.553.15-10.221 1.607-12.224 1.437-1.973 6.778-3.787 11.069-5.244 7.514-2.551 16.03-5.443 19.851-12.929 3.785-7.414 1.149-15.954-1.176-23.489-1.35-4.373-3.029-9.816-2.25-12.215.738-2.273 5.22-5.629 8.822-8.326 6.38-4.777 13.611-10.191 14.926-18.557 1.283-8.148-3.839-15.41-8.358-21.816zm-79.086 69.731c-4.703 0-8.529-3.826-8.529-8.528 0-4.703 3.826-8.529 8.529-8.529s8.529 3.826 8.529 8.529c0 4.702-3.826 8.528-8.529 8.528zm-240.432 0c-4.703 0-8.529-3.826-8.529-8.528 0-4.703 3.826-8.529 8.529-8.529s8.529 3.826 8.529 8.529c0 4.702-3.827 8.528-8.529 8.528zm23.529-32.572c0-4.142-3.358-7.5-7.5-7.5s-7.5 3.358-7.5 7.5c0 .172.006.343.007.514h-4.528c-6.913 0-12.536-5.624-12.536-12.536s5.624-12.536 12.536-12.536h12.021c4.142 0 7.5-3.358 7.5-7.5s-3.358-7.5-7.5-7.5h-2.338c-.969-5.544-1.031-15.302 6.934-24.778 15.439-1.175 32.787-4.205 52.86-26.576 20.623-22.982 40.981-31.596 68.064-28.81 0 0 3.916.405 4.281.442 6.535 25.083 29.192 33.672 47.582 40.63 23.935 9.055 36.93 15.248 32.916 39.091h-1.925c-4.142 0-7.5 3.358-7.5 7.5s3.358 7.5 7.5 7.5h12.021c6.913 0 12.536 5.624 12.536 12.536s-5.624 12.536-12.536 12.536h-4.528c.001-.171.007-.342.007-.514 0-4.142-3.358-7.5-7.5-7.5s-7.5 3.358-7.5 7.5c0 53.313-43.374 96.687-96.688 96.687s-96.686-43.373-96.686-96.686zm163.666 166.766 7.659 2.703c-6.884 7.006-14.683 12.99-23.286 17.841-3.608 2.035-4.883 6.609-2.849 10.217 1.378 2.444 3.921 3.817 6.54 3.817 1.248 0 2.513-.312 3.677-.969 11.849-6.682 22.352-15.255 31.304-25.476l17.176 6.062c-25.871 32.613-65.31 51.842-107.2 51.842-41.888 0-81.33-19.228-107.2-51.841l17.152-6.054c22.772 25.998 55.387 40.837 90.049 40.837 9.642 0 19.238-1.151 28.521-3.421 4.023-.984 6.488-5.043 5.504-9.067-.984-4.023-5.041-6.487-9.067-5.504-8.119 1.985-16.516 2.991-24.958 2.991-28.282 0-55.005-11.299-74.638-31.276l7.659-2.703c15.786-5.572 26.392-20.562 26.392-37.303v-25.41c12.586 4.926 26.275 7.635 40.586 7.635s28-2.709 40.587-7.635v25.412c-.001 16.739 10.605 31.73 26.392 37.302z"/><path d="m217.729 236.211c1.449 2.146 3.813 3.302 6.221 3.302 1.444 0 2.905-.417 4.192-1.286 3.432-2.319 4.334-6.981 2.015-10.413-4.788-7.086-13.103-11.315-22.243-11.315s-17.456 4.229-22.243 11.315c-2.319 3.432-1.417 8.094 2.015 10.413 3.433 2.319 8.094 1.417 10.414-2.016 1.964-2.907 5.725-4.713 9.814-4.713s7.851 1.806 9.815 4.713z"/><path d="m283.859 238.227c3.433 2.319 8.095 1.417 10.414-2.016 1.964-2.907 5.725-4.713 9.814-4.713s7.85 1.806 9.814 4.713c1.449 2.146 3.813 3.302 6.221 3.302 1.444 0 2.905-.417 4.192-1.286 3.432-2.319 4.334-6.981 2.015-10.413-4.788-7.086-13.103-11.315-22.243-11.315s-17.456 4.229-22.243 11.315c-2.318 3.431-1.416 8.093 2.016 10.413z"/><path d="m310.762 273.328c.366-2.176-.245-4.403-1.67-6.088s-3.52-2.656-5.726-2.656h-94.73c-2.207 0-4.301.972-5.726 2.656-1.425 1.685-2.036 3.912-1.67 6.088 4.514 26.844 27.544 46.328 54.761 46.328s50.248-19.483 54.761-46.328zm-92.241 6.256h74.961c-6.125 14.941-20.715 25.072-37.48 25.072s-31.356-10.13-37.481-25.072z"/></g></g><g/><g/><g/><g/><g/><g/><g/><g/><g/><g/><g/><g/><g/><g/><g/></svg>