<?xml version="1.0" encoding="iso-8859-1"?>
<!-- Generator: Adobe Illustrator 19.0.0, SVG Export Plug-In . SVG Version: 6.00 Build 0)  -->
<svg version="1.1" id="Capa_1" xmlns="http://www.w3.org/2000/svg" xmlns:xlink="http://www.w3.org/1999/xlink" x="0px" y="0px"
	 viewBox="0 0 512 512" style="enable-background:new 0 0 512 512;" xml:space="preserve">
<polygon style="fill:#A0765F;" points="307.289,358.376 256.092,392.507 204.896,358.376 204.896,324.245 307.289,324.245 "/>
<rect x="196.346" y="332.778" style="fill:#343433;" width="17.066" height="25.598"/>
<path style="fill:#AD8064;" d="M256.946,349.843c-9.813,0.759-19.668-0.58-28.926-3.925c-28.499-14.932-57.255-44.626-57.255-64.337
	v-17.066c-13.422-6.724-22.902-19.361-25.598-34.131c-3.925-18.601,4.01-36.862,17.066-34.131v-25.598
	c0-42.664,26.196-85.328,93.86-85.328s93.86,34.131,93.86,76.795v34.131c13.055-2.73,21.076,15.53,17.066,34.131
	c-2.611,14.804-12.117,27.484-25.598,34.131v17.066c0,19.711-27.049,49.405-55.548,64.337
	C276.614,349.263,266.758,350.603,256.946,349.843z"/>
<path style="fill:#A0765F;" d="M349.953,196.254v-34.131c0-42.664-26.11-76.795-93.86-76.795h-7.509
	c-8.533,35.496-34.131,80.891-34.131,179.956c-0.256,25.428,1.365,50.838,4.864,76.027l8.533,5.034
	c9.258,3.345,19.113,4.684,28.926,3.925c9.813,0.759,19.668-0.58,28.926-3.925c28.499-14.932,55.207-44.626,55.207-64.337v-17.492
	c13.482-6.647,22.987-19.327,25.598-34.131C371.029,211.783,363.008,193.523,349.953,196.254z"/>
<g>
	<path style="fill:#333333;" d="M365.397,202.312c-3.823,1.638-7.432,3.729-10.751,6.229c-3.174,2.492-6.041,5.359-8.533,8.533
		c-4.48,6.417-6.946,14.019-7.082,21.844c-0.401,3.37-3.456,5.777-6.826,5.376c-2.824-0.333-5.043-2.56-5.376-5.376l0,0
		c0.188-7.662-0.154-15.333-1.024-22.953c-0.23-2.969-1.041-5.871-2.389-8.533c-1.152-2.073-2.995-3.678-5.205-4.522
		c-8.191-3.661-15.478-9.079-21.332-15.871c-5.137-6.468-9.727-13.345-13.738-20.564l12.97,1.621
		c-9.053,9.744-19.924,17.629-31.998,23.209c-11.775,5.017-24.045,8.797-36.606,11.263l-18.345,3.584
		c-4.906,0.589-9.608,2.312-13.738,5.034c-7.424,5.034-9.813,15.871-9.898,27.731h-12.373c0.256-7.697-1.536-15.325-5.205-22.1
		c-3.797-6.937-9.292-12.808-15.956-17.066l0,0c-1.758-1.195-2.287-3.55-1.195-5.376c1.067-1.698,3.234-2.321,5.034-1.451
		c4.283,2.125,8.268,4.787,11.861,7.935c3.661,3.072,6.852,6.664,9.471,10.666c5.316,8.234,8.268,17.765,8.533,27.561
		c-0.273,3.422-3.225,5.999-6.656,5.802c-2.927-0.179-5.316-2.389-5.717-5.29v-0.683c-0.418-6.715,0.068-13.465,1.451-20.052
		c1.664-7.492,5.743-14.241,11.605-19.199c5.802-4.42,12.603-7.347,19.796-8.533c5.973-1.365,11.861-2.73,17.663-4.266
		c11.383-2.73,22.518-6.408,33.278-11.007c10.273-4.633,19.591-11.144,27.475-19.199l0,0c3.26-2.986,8.26-2.986,11.519,0
		c0.495,0.478,0.93,1.024,1.28,1.621c3.353,6.638,7.236,13.004,11.605,19.028c4.258,5.171,9.625,9.309,15.7,12.117
		c5,2.389,9.062,6.382,11.519,11.349c2.048,4.42,3.157,9.215,3.242,14.079v24.062h-12.629c0.162-5.231,1.203-10.393,3.072-15.274
		c2.031-4.83,4.923-9.258,8.533-13.055c3.242-3.626,6.937-6.809,11.007-9.471c4.207-2.585,8.703-4.676,13.396-6.229
		c2.048-0.614,4.207,0.521,4.864,2.56c0.64,1.928-0.333,4.027-2.219,4.778L365.397,202.312z"/>
	<path style="fill:#333333;" d="M290.48,305.831c-0.009-3.857-2.628-7.253-6.357-8.234c-9.275-2.671-18.67-4.198-28.124-4.591
		c-8.729,0.427-18.149,1.954-27.271,4.548c-3.891,1.024-6.502,4.42-6.51,8.277l-17.066-0.034
		c0.026-11.579,7.867-21.741,19.062-24.702c10.239-2.91,20.965-4.65,31.742-5.145c11.553,0.444,22.313,2.193,32.706,5.188
		c11.016,2.91,18.857,13.064,18.883,24.651L290.48,305.831z"/>
	<path style="fill:#333333;" d="M257.432,282.776c-3.063,0-6.169-0.503-9.122-1.502l-9.122-2.483
		c-2.278-0.614-3.618-2.969-2.995-5.239s2.978-3.584,5.239-2.995l9.386,2.56c4.326,1.476,8.797,1.476,12.859,0.085l9.642-2.645
		c2.304-0.614,4.625,0.734,5.239,2.995c0.614,2.278-0.725,4.625-2.995,5.239l-9.395,2.56
		C263.405,282.298,260.436,282.776,257.432,282.776z"/>
	<circle style="fill:#333333;" cx="216.074" cy="237.979" r="8.533"/>
	<circle style="fill:#333333;" cx="297.135" cy="237.979" r="8.533"/>
	<path style="fill:#333333;" d="M274.438,311.446h-34.131c-2.355,0-4.266-1.911-4.266-4.266c0-2.355,1.911-4.266,4.266-4.266h34.131
		c2.355,0,4.266,1.911,4.266,4.266C278.704,309.535,276.802,311.446,274.438,311.446z"/>
</g>
<path style="fill:#343433;" d="M251.527,358.581c-8.994,0-17.851-1.553-26.4-4.642c-0.358-0.137-0.717-0.282-1.058-0.469
	c-29.745-15.572-61.837-47.493-61.837-71.889V269.49c-13.251-8.345-22.62-22.04-25.462-37.57
	c-3.14-14.881,0.119-29.976,8.362-38.227c2.534-2.543,5.444-4.335,8.567-5.333v-17.705c0-43.295,26.818-93.86,102.393-93.86
	c92.418,0,102.393,59.67,102.393,85.328v26.238c3.149,0.998,6.084,2.816,8.652,5.393c8.243,8.302,11.477,23.388,8.226,38.432
	c-2.696,15.333-12.065,29.028-25.411,37.339v12.057c0,24.95-31.204,56.743-60.122,71.897c-0.341,0.179-0.7,0.333-1.058,0.469
	c-10.273,3.712-20.999,5.205-31.827,4.454C255.128,358.53,253.328,358.581,251.527,358.581z M231.458,338.085
	c8.021,2.816,16.374,3.925,24.83,3.251c0.444-0.034,0.879-0.034,1.314,0c8.413,0.648,16.801-0.444,24.83-3.251
	c26.008-13.823,50.454-41.145,50.454-56.504v-17.066c0-3.251,1.843-6.22,4.761-7.654c10.999-5.427,18.84-15.879,20.974-27.953
	c2.27-10.529-0.179-19.694-3.592-23.124c-1.416-1.434-2.466-1.357-3.336-1.169c-2.475,0.529-5.128-0.111-7.125-1.732
	c-1.988-1.613-3.149-4.053-3.149-6.621v-34.131c0-44.66-29.506-68.262-85.328-68.262c-79.176,0-85.328,58.782-85.328,76.795v25.598
	c0,2.568-1.16,5-3.149,6.621c-1.997,1.621-4.616,2.261-7.125,1.732c-0.845-0.179-1.886-0.256-3.277,1.135
	c-3.413,3.413-5.871,12.594-3.695,22.876c2.253,12.287,10.111,22.774,21.067,28.269c2.884,1.442,4.71,4.403,4.71,7.628v17.066
	C179.298,296.479,204.572,323.818,231.458,338.085z"/>
<path style="fill:#858140;" d="M256.092,8.533c-81.061,0-136.524,69.542-136.524,110.926c0,46.162,89.253,59.729,136.524,59.729
	s136.524-13.823,136.524-59.729C392.617,85.328,347.052,8.533,256.092,8.533z"/>
<path style="fill:#343433;" d="M256.092,187.721c-50.173,0-145.057-14.267-145.057-68.262C111.036,71.351,171.942,0,256.092,0
	c93.86,0,145.057,78.92,145.057,119.459C401.15,173.454,306.265,187.721,256.092,187.721z M256.092,17.066
	c-78.152,0-127.991,67.238-127.991,102.393c0,35.317,74.841,51.197,127.991,51.197s127.991-15.879,127.991-51.197
	C384.084,88.835,340.533,17.066,256.092,17.066z"/>
<path style="fill:#64622E;" d="M256.092,102.393c-76.795,0-102.393,42.664-102.393,42.664v42.664
	c26.537,42.664,76.795,42.664,102.393,42.664c25.598,0,75.942,0,102.393-42.664v-42.664
	C358.486,145.057,332.887,102.393,256.092,102.393z"/>
<path style="fill:#343433;" d="M256.092,238.917c-26.161,0-80.592,0-109.637-46.691c-0.845-1.357-1.288-2.918-1.288-4.505v-42.664
	c0-1.544,0.418-3.063,1.22-4.394c1.143-1.903,29.003-46.802,109.706-46.802c80.694,0,108.562,44.899,109.706,46.802
	c0.802,1.331,1.22,2.841,1.22,4.394v42.664c0,1.587-0.444,3.149-1.28,4.497C336.787,238.917,282.28,238.917,256.092,238.917z
	 M162.232,185.221c24.37,36.631,69.44,36.631,93.86,36.631c24.446,0,69.576,0,93.86-36.631v-37.527
	c-5.649-7.628-31.324-36.768-93.86-36.768c-62.315,0-88.229,29.259-93.86,36.785V185.221z"/>
<g>
	<path style="fill:#858140;" d="M220.682,120.653c7.091,12.176,22.689,16.332,34.899,9.301
		C248.49,117.778,232.892,113.622,220.682,120.653z"/>
	<path style="fill:#858140;" d="M226.313,151.115c2.227-13.943,15.325-23.448,29.267-21.247
		C253.354,143.811,240.256,153.317,226.313,151.115z"/>
	<path style="fill:#858140;" d="M200.63,127.991c5.342,9.164,17.091,12.287,26.281,6.997
		C221.569,125.824,209.819,122.701,200.63,127.991z"/>
	<path style="fill:#858140;" d="M204.896,151.115c1.707-10.47,11.536-17.595,22.015-15.956
		C225.204,145.629,215.374,152.754,204.896,151.115z"/>
	<path style="fill:#858140;" d="M184.332,134.22c3.976,6.86,12.739,9.224,19.625,5.29
		C199.981,132.65,191.218,130.287,184.332,134.22z"/>
	<path style="fill:#858140;" d="M187.318,151.371c1.186-7.825,8.456-13.234,16.298-12.117h0.768
		c-1.186,7.825-8.456,13.234-16.298,12.117H187.318z"/>
	<path style="fill:#858140;" d="M291.674,120.653c-7.091,12.227-22.757,16.391-34.984,9.301
		C263.781,117.727,279.447,113.563,291.674,120.653z"/>
	<path style="fill:#858140;" d="M286.043,151.115c-2.227-13.943-15.325-23.448-29.267-21.247l0,0
		C259.002,143.811,272.1,153.317,286.043,151.115z"/>
	<path style="fill:#858140;" d="M311.726,127.991c-5.341,9.164-17.091,12.287-26.281,6.997
		C290.787,125.824,302.536,122.701,311.726,127.991z"/>
	<path style="fill:#858140;" d="M307.46,151.115c-1.707-10.47-11.536-17.595-22.015-15.956
		C287.152,145.629,296.982,152.754,307.46,151.115z"/>
	<path style="fill:#858140;" d="M328.024,134.22c-4.036,6.826-12.799,9.181-19.711,5.29
		C312.349,132.684,321.112,130.329,328.024,134.22z"/>
	<path style="fill:#858140;" d="M324.867,151.371c-1.22-7.825-8.558-13.175-16.383-11.946l0,0l0,0
		C309.704,147.25,317.042,152.6,324.867,151.371L324.867,151.371z"/>
</g>
<path style="fill:#F4E2BE;" d="M255.581,51.197c-18.849,0-34.131,15.282-34.131,34.131h68.262
	C289.712,66.479,274.429,51.197,255.581,51.197z"/>
<g>
	<path style="fill:#343433;" d="M153.699,187.721c26.537,42.664,76.795,42.664,102.393,42.664c25.598,0,75.942,0,102.393-42.664
		c-8.533-8.533-59.729-25.598-102.393-25.598S162.232,179.188,153.699,187.721z"/>
	<path style="fill:#343433;" d="M256.092,238.917c-26.161,0-80.592,0-109.637-46.691c-2.099-3.37-1.596-7.739,1.212-10.538
		c10.837-10.845,64.858-28.098,108.426-28.098c43.56,0,97.589,17.253,108.426,28.098c2.799,2.799,3.311,7.159,1.22,10.529
		C336.787,238.917,282.28,238.917,256.092,238.917z M165.79,190.127c24.984,31.725,67.025,31.725,90.302,31.725
		c23.294,0,65.395,0,90.319-31.716c-15.274-7.287-54.559-19.48-90.319-19.48S181.064,182.84,165.79,190.127z"/>
	<rect x="298.739" y="332.778" style="fill:#343433;" width="17.066" height="25.598"/>
</g>
<path style="fill:#FFFFFF;" d="M256.092,499.167c-71.65,0.478-142.617-13.874-208.455-42.152l4.608-24.148
	c3.08-13.072,12.799-23.568,25.598-27.646l105.294-17.066l7.765-38.909l66.044,49.831l65.02-50.002l7.594,30.291l105.209,26.281
	c13.055,4.164,23.218,14.514,27.134,27.646l3.413,25.598C399.102,486.598,327.862,500.31,256.092,499.167z"/>
<path d="M319.235,355.987l5.376,21.503l1.28,4.949l4.949,1.28l102.393,25.598c11.34,3.814,20.197,12.774,23.892,24.148l3.242,22.015
	c-64.712,26.87-134.212,40.283-204.274,39.421c-69.909,0.444-139.178-13.345-203.592-40.531l3.925-20.735
	c2.765-11.212,11.016-20.265,21.929-24.062l102.393-17.066l5.802-1.024l0.768-5.802l5.888-29.353l58.108,43.773l5.205,3.925
	l5.12-3.925l57.255-44.114 M323.843,341.311l-67.409,52.05l-68.262-52.05l-8.533,42.664L77.246,401.04
	c-14.455,4.471-25.453,16.255-28.926,30.974l-5.12,27.475c67.23,29.455,139.92,44.43,213.319,43.944
	c73.313,0.964,146.013-13.576,213.319-42.664l-3.84-28.755c-4.394-14.821-15.931-26.46-30.718-30.974l-102.393-25.598l-8.533-34.131
	L323.843,341.311L323.843,341.311z"/>
<g>
	<path style="fill:#64622E;" d="M179.298,383.974L76.392,401.04c-14.514,4.36-25.573,16.195-28.926,30.974
		c-1.792,9.471-5.205,28.755-5.205,28.755c56.751,24.498,117.445,38.568,179.188,41.555L179.298,383.974z"/>
	<path style="fill:#64622E;" d="M334.85,376.295l100.687,24.745c14.454,4.471,25.453,16.255,28.926,30.974l5.205,28.755
		c-56.751,24.498-117.445,38.568-179.188,41.555L334.85,376.295z"/>
</g>
<path style="fill:#858140;" d="M289.712,503.433c-1.109-1.024-25.598-68.262-25.598-68.262h-17.066l-25.598,68.262"/>
<path style="fill:#333333;" d="M283.926,509.696c-1.911-1.766-2.594-2.398-25.777-65.992h-5.179l-23.516,62.733l-15.982-5.999
	l27.663-73.8h28.952l2.039,5.615c8.72,23.943,23.243,63.339,25.052,67.085l-6.656,3.217L283.926,509.696z"/>
<path style="fill:#343433;" d="M256.092,465.036c-2.355,0-4.266-1.911-4.266-4.266v-17.066c0-2.355,1.911-4.266,4.266-4.266
	c2.355,0,4.266,1.911,4.266,4.266v17.066C260.359,463.124,258.448,465.036,256.092,465.036z"/>
<polygon style="fill:#858140;" points="255.41,393.275 230.494,418.105 247.56,435.171 264.625,435.171 281.691,418.105 "/>
<path style="fill:#343433;" d="M264.625,443.704H247.56c-2.261,0-4.437-0.896-6.033-2.5l-17.066-17.066
	c-1.604-1.604-2.5-3.771-2.5-6.041s0.904-4.437,2.509-6.033l24.916-24.83c3.277-3.26,8.533-3.328,11.886-0.162l26.272,24.83
	c1.672,1.587,2.645,3.771,2.671,6.084c0.034,2.304-0.87,4.514-2.5,6.152l-17.066,17.066
	C269.054,442.808,266.886,443.704,264.625,443.704z M251.092,426.638h10l8.354-8.354l-13.874-13.115l-12.995,12.953L251.092,426.638
	z"/>
<polygon style="fill:#EFEDED;" points="187.83,341.311 179.298,375.442 221.961,435.171 256.092,392.507 "/>
<path style="fill:#343433;" d="M221.961,443.704c-0.077,0-0.154,0-0.23,0c-2.671-0.077-5.154-1.399-6.715-3.575l-42.664-59.729
	c-1.451-2.031-1.937-4.599-1.331-7.022l8.533-34.131c0.7-2.773,2.73-5.017,5.427-5.973c2.696-0.973,5.683-0.503,7.978,1.22
	l68.262,51.197c1.843,1.382,3.055,3.456,3.345,5.751c0.29,2.295-0.358,4.599-1.8,6.408l-34.131,42.664
	C227.004,442.526,224.547,443.704,221.961,443.704z M188.53,373.692l33.815,47.34l21.588-26.981l-50.941-38.201L188.53,373.692z"/>
<polygon style="fill:#EFEDED;" points="324.355,341.311 332.887,375.442 290.224,435.171 256.092,392.507 "/>
<path style="fill:#343433;" d="M290.224,443.704c-2.594,0-5.043-1.178-6.664-3.2l-34.131-42.664c-1.442-1.809-2.091-4.113-1.8-6.408
	c0.29-2.295,1.502-4.369,3.345-5.751l68.262-51.197c2.278-1.715,5.265-2.184,7.978-1.22c2.688,0.956,4.727,3.2,5.418,5.973
	l8.533,34.131c0.606,2.423,0.128,4.992-1.331,7.022l-42.664,59.729c-1.553,2.176-4.036,3.498-6.707,3.575
	C290.377,443.704,290.3,443.704,290.224,443.704z M268.26,394.052l21.579,26.981l33.815-47.34l-4.454-17.842L268.26,394.052z"/>
<path style="fill:#F4E2BE;" d="M94.311,410.426c-3.507,0.563-6.818-1.792-7.424-5.29l-1.963-12.628
	c-0.572-3.43,1.707-6.69,5.12-7.338l0,0l53.244-8.533c3.507-0.563,6.818,1.792,7.424,5.29l2.475,12.287
	c0.572,3.481-1.741,6.775-5.205,7.423L94.311,410.426z"/>
<path style="fill:#333333;" d="M144.655,382.694l2.133,12.629l-53.244,8.533l-2.133-12.628L144.655,382.694 M142.521,370.066
	l-53.244,8.533c-6.971,1.169-11.673,7.773-10.495,14.745c0,0.009,0,0.009,0,0.017l0,0l2.133,12.629
	c1.212,6.946,7.816,11.596,14.762,10.41l53.244-8.533c6.971-1.169,11.673-7.773,10.495-14.745c0-0.009,0-0.009,0-0.017l0,0
	l-2.133-12.628c-1.169-6.971-7.773-11.673-14.745-10.495c-0.009,0-0.009,0-0.017,0l0,0L142.521,370.066L142.521,370.066z"/>
<path style="fill:#F4E2BE;" d="M419.068,410.426c3.49,0.563,6.775-1.8,7.338-5.29l2.133-12.628c0.572-3.43-1.707-6.69-5.12-7.338
	l0,0l-53.244-8.533c-3.507-0.563-6.818,1.792-7.423,5.29l-2.219,12.287c-0.563,3.507,1.792,6.818,5.29,7.423L419.068,410.426z"/>
<path style="fill:#333333;" d="M368.981,382.694l53.244,8.533l-2.133,12.628l-53.244-8.533L368.981,382.694 M356.353,380.561
	l-2.133,12.628c-1.186,6.971,3.507,13.576,10.478,14.762c0.009,0,0.009,0,0.017,0l0,0l53.244,8.533
	c6.946,1.186,13.55-3.464,14.762-10.41l2.048-12.458c1.186-6.946-3.464-13.55-10.41-14.762l-53.33-8.533
	C364.169,369.179,357.649,373.727,356.353,380.561z"/>
<g>
	<polygon style="fill:#858140;" points="145.167,366.909 119.568,409.573 137.316,426.894 120.251,452.492 172.983,498.825 
		224.095,503.774 170.765,358.376 	"/>
	<polygon style="fill:#858140;" points="392.617,409.573 367.018,366.909 341.42,358.376 288.176,503.774 339.287,498.825 
		392.019,452.492 374.954,426.894 	"/>
</g>
<g>
	<path style="fill:#343433;" d="M216.082,506.718l-50.48-137.625l-14.753,4.915l-20.504,34.174l12.927,12.611
		c2.935,2.867,3.413,7.423,1.135,10.845l-12.927,19.378l47.126,41.41l-11.263,12.816l-52.732-46.333
		c-3.208-2.816-3.84-7.586-1.468-11.144l13.14-19.711l-12.68-12.372c-2.833-2.765-3.388-7.108-1.357-10.495l25.598-42.664
		c1.05-1.741,2.688-3.055,4.616-3.703l25.598-8.533c4.394-1.468,9.122,0.828,10.709,5.154l53.33,145.398L216.082,506.718z"/>
	<path style="fill:#343433;" d="M296.188,506.71l-16.033-5.871l53.244-145.398c1.596-4.335,6.297-6.621,10.717-5.154l25.598,8.533
		c1.937,0.64,3.567,1.954,4.616,3.703l25.598,42.664c2.031,3.379,1.476,7.714-1.34,10.487l-12.62,12.373l13.149,19.728
		c2.372,3.558,1.741,8.328-1.468,11.144l-52.741,46.333l-11.263-12.816l47.126-41.41l-12.927-19.378
		c-2.278-3.405-1.8-7.961,1.126-10.828l12.859-12.611l-20.513-34.191l-14.745-4.915L296.188,506.71z"/>
	<path style="fill:#343433;" d="M250.077,512c-72.733,0-143.658-14.591-210.759-43.389c-3.652-1.57-5.734-5.452-5.026-9.36
		l5.205-28.755c4.258-18.064,17.603-32.305,34.908-37.612c0.375-0.119,0.759-0.205,1.152-0.264l8.533-1.365l2.696,16.852
		l-7.918,1.263c-11.272,3.669-19.933,13.047-22.672,24.617l-3.899,21.579c64.849,26.861,133.128,39.95,203.617,39.336
		c70.276,0.555,138.956-12.483,203.814-39.345c-1.152-6.459-2.884-16.093-3.993-21.955c-2.577-11.297-11.204-20.658-22.518-24.242
		l-7.995-1.348l2.867-16.835l8.533,1.451c0.341,0.068,0.683,0.145,1.015,0.239c17.432,5.231,30.761,19.506,34.797,37.254
		c1.86,9.813,5.282,29.156,5.282,29.156c0.691,3.908-1.391,7.765-5.034,9.335c-68.885,29.566-141.84,43.884-216.766,43.355
		C253.968,511.983,252.022,512,250.077,512z"/>
</g>
<g>
</g>
<g>
</g>
<g>
</g>
<g>
</g>
<g>
</g>
<g>
</g>
<g>
</g>
<g>
</g>
<g>
</g>
<g>
</g>
<g>
</g>
<g>
</g>
<g>
</g>
<g>
</g>
<g>
</g>
</svg>
