<svg id="Icons" height="512" viewBox="0 0 60 60" width="512" xmlns="http://www.w3.org/2000/svg"><path d="m48 33-.2 4.16.2 16.84h-36l.2-16.84-.2-4.16v-2h36z" fill="#276793"/><path d="m42 29v-5.621a4.123 4.123 0 0 0 -3.313-4.042l-1.687-.337h-14l-1.687.337a4.123 4.123 0 0 0 -3.313 4.042v5.621z" fill="#1767dd"/><path d="m32.47 50.08 1.11-.88a2.882 2.882 0 0 0 1.09-2.25v-1.28a1.338 1.338 0 0 0 1.33-1.34v-1.33a1.329 1.329 0 0 0 -1.33-1.33 4.67 4.67 0 0 0 -9.34 0 1.329 1.329 0 0 0 -1.33 1.33v1.33a1.338 1.338 0 0 0 1.33 1.34v1.28a2.882 2.882 0 0 0 1.09 2.25l1.11.88z" fill="#a3584a"/><path d="m33 29h-6l1.7-5 1.3-1 1.28 1z" fill="#e6e9ed"/><path d="m39.5 58.31a1.976 1.976 0 0 1 -1.5.69h-16a1.976 1.976 0 0 1 -1.5-.69v-5.06a5.067 5.067 0 0 1 4.08-2.87l3.75-.38h3.34l3.75.38a5.067 5.067 0 0 1 4.08 2.87z" fill="#f2c32f"/><path d="m13.47 50.08 1.11-.88a2.882 2.882 0 0 0 1.09-2.25v-1.28a1.338 1.338 0 0 0 1.33-1.34v-1.33a1.329 1.329 0 0 0 -1.33-1.33 4.67 4.67 0 0 0 -9.34 0 1.329 1.329 0 0 0 -1.33 1.33v1.33a1.338 1.338 0 0 0 1.33 1.34v1.28a2.882 2.882 0 0 0 1.09 2.25l1.11.88z" fill="#f4c0a6"/><path d="m19 59h-16a2 2 0 0 1 -2-2v-1.564a5.086 5.086 0 0 1 4.58-5.061l3.753-.375h3.334l3.753.375a5.086 5.086 0 0 1 4.58 5.061v1.564a2 2 0 0 1 -2 2z" fill="#1767dd"/><path d="m51.47 50.08 1.11-.88a2.882 2.882 0 0 0 1.09-2.25v-1.28a1.338 1.338 0 0 0 1.33-1.34v-1.33a1.329 1.329 0 0 0 -1.33-1.33 4.67 4.67 0 0 0 -9.34 0 1.329 1.329 0 0 0 -1.33 1.33v1.33a1.338 1.338 0 0 0 1.33 1.34v1.28a2.882 2.882 0 0 0 1.09 2.25l1.11.88z" fill="#f4c0a6"/><path d="m57 59h-16a2 2 0 0 1 -2-2v-1.564a5.086 5.086 0 0 1 4.58-5.061l3.753-.375h3.334l3.753.375a5.086 5.086 0 0 1 4.58 5.061v1.564a2 2 0 0 1 -2 2z" fill="#1767dd"/><path d="m27.9 21.8.803 2.2h2.578l.819-2.2-2.1-2.8z" fill="#fff"/><path d="m34 17 3 2-2.988 2.988a1.24 1.24 0 0 1 -1.87-.133l-2.142-2.855-2.142 2.855a1.24 1.24 0 0 1 -1.87.133l-2.988-2.988 3-2z" fill="#3a8def"/><path d="m32.91 13.73 1.09 3.27a10.945 10.945 0 0 1 -4 2 10.945 10.945 0 0 1 -4-2l1.09-3.27z" fill="#934d44"/><path d="m34.667 9.667a1.333 1.333 0 0 0 1.333-1.334v-1.333a1.333 1.333 0 0 0 -1.333-1.333 4.667 4.667 0 0 0 -9.334 0 1.333 1.333 0 0 0 -1.333 1.333v1.333a1.333 1.333 0 0 0 1.333 1.334v1.279a2.886 2.886 0 0 0 1.084 2.254l1.768 1.415a1.76 1.76 0 0 0 1.1.385h1.434a1.76 1.76 0 0 0 1.1-.385l1.764-1.415a2.886 2.886 0 0 0 1.084-2.254z" fill="#a3584a"/><rect fill="#286da5" height="5" rx="2" width="40" x="10" y="28"/><path d="m54.52 49.38-.665-.066a3.842 3.842 0 0 0 .815-2.364v-.507a2.343 2.343 0 0 0 1.33-2.113v-1.33a2.331 2.331 0 0 0 -1.387-2.13 5.678 5.678 0 0 0 -5.613-4.87c-.049 0-.095.012-.144.013l.1-2.185a3 3 0 0 0 2.044-2.828v-1a3 3 0 0 0 -3-3h-5v-3.621a5.135 5.135 0 0 0 -4.117-5.022l-1.493-.3-2.55-1.7-.759-2.276.126-.1a3.864 3.864 0 0 0 1.46-3.035v-.5a2.337 2.337 0 0 0 1.333-2.113v-1.333a2.335 2.335 0 0 0 -1.39-2.134 5.667 5.667 0 0 0 -11.22 0 2.335 2.335 0 0 0 -1.39 2.134v1.333a2.337 2.337 0 0 0 1.333 2.108v.5a3.862 3.862 0 0 0 1.459 3.034l.127.1-.759 2.276-2.55 1.7-1.493.3a5.135 5.135 0 0 0 -4.117 5.028v3.621h-1a1 1 0 0 0 0 2h32a1 1 0 0 1 1 1v1a1 1 0 0 1 -1 1h-36a1 1 0 0 1 -1-1v-1a1 1 0 0 1 1-1 1 1 0 0 0 0-2 3 3 0 0 0 -3 3v1a3 3 0 0 0 2.039 2.828l.105 2.185c-.049 0-.1-.013-.144-.013a5.678 5.678 0 0 0 -5.613 4.87 2.331 2.331 0 0 0 -1.387 2.13v1.33a2.343 2.343 0 0 0 1.33 2.113v.507a3.845 3.845 0 0 0 .814 2.364l-.664.066a6.068 6.068 0 0 0 -5.48 6.056v1.564a3 3 0 0 0 3 3h16a2.965 2.965 0 0 0 1.507-.421 2.959 2.959 0 0 0 1.493.421h16a2.959 2.959 0 0 0 1.493-.421 2.965 2.965 0 0 0 1.507.421h16a3 3 0 0 0 3-3v-1.564a6.068 6.068 0 0 0 -5.48-6.056zm-13.52-26.001v3.621h-7.677l-.982-2.98.275-.739a2.172 2.172 0 0 0 .36.065c.052 0 .106.006.159.006a2.24 2.24 0 0 0 1.584-.657l2.61-2.61 1.161.233a3.131 3.131 0 0 1 2.51 3.061zm-11.717-7.379h1.434a2.772 2.772 0 0 0 1.7-.589l.407 1.222a13.493 13.493 0 0 1 -2.824 1.308 13.56 13.56 0 0 1 -2.824-1.307l.407-1.223a2.768 2.768 0 0 0 1.7.589zm.119 7-.377-1.034.975-1.3.972 1.295-.386 1.039zm.027 2h1.128l.66 2h-2.439zm3.876-3.719a.242.242 0 0 1 -.364-.026l-1.341-1.783a13.422 13.422 0 0 0 2.435-1.245l1.392.928zm-7.972-12.614a.334.334 0 0 1 -.333-.334v-1.333a.333.333 0 0 1 .333-.333 1 1 0 0 0 1-1 3.667 3.667 0 0 1 7.334 0 1 1 0 0 0 1 1 .333.333 0 0 1 .333.333v1.333a.334.334 0 0 1 -.333.334 1 1 0 0 0 -1 1v1.279a1.875 1.875 0 0 1 -.709 1.473l-1.767 1.414a.757.757 0 0 1 -.474.167h-1.434a.757.757 0 0 1 -.473-.166l-1.769-1.416a1.874 1.874 0 0 1 -.708-1.472v-1.279a1 1 0 0 0 -1-1zm.628 9.56a13.422 13.422 0 0 0 2.439 1.245l-1.337 1.783a.242.242 0 0 1 -.364.026l-2.126-2.126zm-6.961 5.152a3.131 3.131 0 0 1 2.51-3.061l1.161-.233 2.61 2.61a2.24 2.24 0 0 0 1.584.657c.053 0 .107 0 .159-.006a2.192 2.192 0 0 0 .353-.063l.268.735-.971 2.982h-7.674zm33.67 18.291a1 1 0 0 0 1 1 .33.33 0 0 1 .33.33v1.33a.339.339 0 0 1 -.33.34 1 1 0 0 0 -1 1v1.28a1.869 1.869 0 0 1 -.711 1.466l-.8.633-.492-.049-3.434.005-.4.04-.791-.627a1.872 1.872 0 0 1 -.713-1.468v-1.28a1 1 0 0 0 -1-1 .339.339 0 0 1 -.33-.34v-1.33a.33.33 0 0 1 .33-.33 1 1 0 0 0 1-1 3.67 3.67 0 0 1 7.34 0zm-39.621-7.67h33.9l-.118 2.443a5.677 5.677 0 0 0 -3.446 4.427 2.331 2.331 0 0 0 -1.385 2.13v1.33a2.343 2.343 0 0 0 1.33 2.113v.507a3.845 3.845 0 0 0 .814 2.364l-.664.066a6.06 6.06 0 0 0 -3.985 2.066 6.1 6.1 0 0 0 -3.974-2.061l-.667-.068a3.843 3.843 0 0 0 .816-2.367v-.507a2.343 2.343 0 0 0 1.33-2.113v-1.33a2.331 2.331 0 0 0 -1.387-2.13 5.67 5.67 0 0 0 -11.226 0 2.331 2.331 0 0 0 -1.387 2.13v1.33a2.343 2.343 0 0 0 1.33 2.113v.507a3.84 3.84 0 0 0 .817 2.367l-.666.068a6.1 6.1 0 0 0 -3.976 2.061 6.06 6.06 0 0 0 -3.985-2.066l-.665-.066a3.842 3.842 0 0 0 .815-2.364v-.507a2.343 2.343 0 0 0 1.33-2.113v-1.33a2.331 2.331 0 0 0 -1.387-2.13 5.677 5.677 0 0 0 -3.446-4.427zm14.785 15.045-.791-.627a1.872 1.872 0 0 1 -.713-1.468v-1.28a1 1 0 0 0 -1-1 .339.339 0 0 1 -.33-.34v-1.33a.33.33 0 0 1 .33-.33 1 1 0 0 0 1-1 3.67 3.67 0 0 1 7.34 0 1 1 0 0 0 1 1 .33.33 0 0 1 .33.33v1.33a.339.339 0 0 1 -.33.34 1 1 0 0 0 -1 1v1.28a1.869 1.869 0 0 1 -.711 1.466l-.794.629-.394-.04c-.034 0-.068-.005-.1-.005h-3.341c-.033 0-.067 0-.1.005zm-19.791-.627a1.872 1.872 0 0 1 -.713-1.468v-1.28a1 1 0 0 0 -1-1 .339.339 0 0 1 -.33-.34v-1.33a.33.33 0 0 1 .33-.33 1 1 0 0 0 1-1 3.67 3.67 0 0 1 7.34 0 1 1 0 0 0 1 1 .33.33 0 0 1 .33.33v1.33a.339.339 0 0 1 -.33.34 1 1 0 0 0 -1 1v1.28a1.869 1.869 0 0 1 -.711 1.466l-.8.633-.492-.049-3.434.005-.4.04zm10.957 9.582h-16a1 1 0 0 1 -1-1v-1.564a4.074 4.074 0 0 1 3.68-4.066l3.653-.37h3.234l3.753.375a4.074 4.074 0 0 1 3.68 4.061v1.564a1 1 0 0 1 -1 1zm3 0a.956.956 0 0 1 -.173-.038 2.949 2.949 0 0 0 .173-.962v-1.564a6.089 6.089 0 0 0 -.389-2.129 4.09 4.09 0 0 1 3.07-1.932l3.7-.375h3.238l3.7.375a4.09 4.09 0 0 1 3.068 1.932 6.089 6.089 0 0 0 -.387 2.129v1.564a2.949 2.949 0 0 0 .173.962.956.956 0 0 1 -.173.038zm36-1a1 1 0 0 1 -1 1h-16a1 1 0 0 1 -1-1v-1.564a4.074 4.074 0 0 1 3.68-4.066l3.653-.37h3.234l3.753.375a4.074 4.074 0 0 1 3.68 4.061z" fill="#272727"/></svg>