<svg id="Layer_1" height="512" viewBox="0 0 64 64" width="512" xmlns="http://www.w3.org/2000/svg" data-name="Layer 1"><path d="m6 37v24h52v-37l-26-22-26 21z" fill="#fff"/><path d="m32 2-3.07 2.48 23.07 19.52v37h6v-37z" opacity=".1"/><path d="m26 34h12a4 4 0 0 1 4 4v24a0 0 0 0 1 0 0h-20a0 0 0 0 1 0 0v-24a4 4 0 0 1 4-4z" fill="#f78c8c"/><path d="m38 34h-6a4 4 0 0 1 4 4v24h6v-24a4 4 0 0 0 -4-4z" opacity=".1"/><circle cx="30" cy="48" fill="#fff" r="2"/><path d="m63.28 24.46-10.28-8.56v-6.9a2 2 0 0 0 -4 0v3.56l-13.16-10.96a6 6 0 0 0 -7.68 0l-27.44 22.86a2 2 0 0 0 2.56 3.08l27.44-22.87a2 2 0 0 1 2.56 0l22.72 18.93v34.4a2 2 0 0 1 -2 2h-10v-22a6 6 0 0 0 -6-6h-12a6 6 0 0 0 -6 6v22h-10a2 2 0 0 1 -2-2v-24a2 2 0 0 0 -4 0v24a6 6 0 0 0 6 6h44a6 6 0 0 0 6-6v-31.06l.72.6a2 2 0 0 0 1.28.46 2 2 0 0 0 1.28-3.54zm-39.28 35.54v-22a2 2 0 0 1 2-2h12a2 2 0 0 1 2 2v22z" fill="#1b1464"/></svg>